HIERARCHY
ROOT Hips
{
 OFFSET 0.000000 0.000000 0.000000
 CHANNELS 6 Xposition Yposition Zposition Yrotation Xrotation Zrotation
 JOINT Chest
 {
  OFFSET 0.000000 9.585900 0.002600
  CHANNELS 3 Yrotation Xrotation Zrotation
  JOINT Chest2
  {
   OFFSET 0.000000 9.601200 -0.005300
   CHANNELS 3 Yrotation Xrotation Zrotation
   JOINT Chest3
   {
    OFFSET 0.000000 9.561800 0.000000
    CHANNELS 3 Yrotation Xrotation Zrotation
    JOINT Chest4
    {
     OFFSET 0.000000 9.552100 0.000000
     CHANNELS 3 Yrotation Xrotation Zrotation
     JOINT Neck
     {
      OFFSET 0.000000 14.453000 0.000000
      CHANNELS 3 Yrotation Xrotation Zrotation
      JOINT Head
      {
       OFFSET 0.000000 8.936500 -0.011300
       CHANNELS 3 Yrotation Xrotation Zrotation
       End Site
       {
        OFFSET 0.000000 17.073600 -0.006000
       }
      }
     }
     JOINT RightCollar
     {
      OFFSET -2.921100 9.558500 0.000000
      CHANNELS 3 Yrotation Xrotation Zrotation
      JOINT RightShoulder
      {
       OFFSET -13.519700 0.000000 0.000000
       CHANNELS 3 Yrotation Xrotation Zrotation
       JOINT RightElbow
       {
        OFFSET 0.000000 -29.696600 0.000000
        CHANNELS 3 Yrotation Xrotation Zrotation
        JOINT RightWrist
        {
         OFFSET 0.000000 -24.004700 0.000000
         CHANNELS 3 Yrotation Xrotation Zrotation
         End Site
         {
          OFFSET 0.000000 -17.728500 0.000000
         }
        }
       }
      }
     }
     JOINT LeftCollar
     {
      OFFSET 2.921100 9.558500 0.000000
      CHANNELS 3 Yrotation Xrotation Zrotation
      JOINT LeftShoulder
      {
       OFFSET 13.519700 0.000000 0.000000
       CHANNELS 3 Yrotation Xrotation Zrotation
       JOINT LeftElbow
       {
        OFFSET 0.000000 -29.696600 0.000000
        CHANNELS 3 Yrotation Xrotation Zrotation
        JOINT LeftWrist
        {
         OFFSET 0.000000 -24.004700 0.000000
         CHANNELS 3 Yrotation Xrotation Zrotation
         End Site
         {
          OFFSET 0.000000 -17.728500 0.000000
         }
        }
       }
      }
     }
    }
   }
  }
 }
 JOINT RightHip
 {
  OFFSET -7.771700 -0.012900 -0.001300
  CHANNELS 3 Yrotation Xrotation Zrotation
  JOINT RightKnee
  {
   OFFSET 0.000000 -40.869800 0.001200
   CHANNELS 3 Yrotation Xrotation Zrotation
   JOINT RightAnkle
   {
    OFFSET 0.000000 -39.717900 0.002100
    CHANNELS 3 Yrotation Xrotation Zrotation
    JOINT RightToe
    {
     OFFSET 0.000000 -4.965400 11.033500
     CHANNELS 3 Yrotation Xrotation Zrotation
     End Site
     {
      OFFSET 0.000000 -1.423100 5.872300
     }
    }
   }
  }
 }
 JOINT LeftHip
 {
  OFFSET 7.771700 -0.012900 -0.001300
  CHANNELS 3 Yrotation Xrotation Zrotation
  JOINT LeftKnee
  {
   OFFSET 0.000000 -40.869800 0.001200
   CHANNELS 3 Yrotation Xrotation Zrotation
   JOINT LeftAnkle
   {
    OFFSET 0.000000 -39.717900 0.002100
    CHANNELS 3 Yrotation Xrotation Zrotation
    JOINT LeftToe
    {
     OFFSET 0.000000 -4.965400 11.033500
     CHANNELS 3 Yrotation Xrotation Zrotation
     End Site
     {
      OFFSET 0.000000 -1.423100 5.872300
     }
    }
   }
  }
 }
}
MOTION
Frames: 12
Frame Time: 0.008333
-60.189648 57.848296 11.518680 179.201825 -50.983332 -3.450706 2.229531 21.726994 2.069609 1.136738 12.396202 1.132415 1.472751 15.550133 1.476661 1.127950 12.394775 1.120531 2.451777 18.774857 3.676162 3.326352 -0.953794 5.958531 9.896916 0.324963 -1.035686 2.365140 -39.790710 -32.411100 -57.222706 -38.840651 92.201465 -3.681275 8.650083 -36.663851 -7.677109 -3.375642 -2.397052 -0.978752 -18.120613 7.345763 20.029914 -26.554821 -60.935686 6.275096 -0.292570 23.122350 6.767754 -20.121990 -2.158411 -35.524997 74.173317 -40.252933 6.327484 -15.722589 13.713014 0.045176 -0.065172 0.026073 -6.979687 -18.017450 5.256123 86.850759 82.015383 85.837215 0.393020 -22.074297 -17.702816 0.026325 0.090988 0.012098
-60.189253 57.850220 11.516653 179.208491 -51.020868 -3.445301 2.225301 21.726937 2.060670 1.134376 12.414646 1.128347 1.467154 15.542804 1.469691 1.129559 12.392869 1.112513 2.432019 18.758617 3.665122 3.293153 -0.983415 5.944498 9.907325 0.315251 -1.040654 2.443248 -39.777110 -32.488044 -57.205534 -38.846543 92.239696 -3.678557 8.681144 -36.641255 -7.676095 -3.368325 -2.387821 -0.973688 -18.117159 7.342019 20.022540 -26.545902 -60.905914 6.259646 -0.289155 23.113592 6.757059 -20.086065 -2.163487 -35.542478 74.177096 -40.277028 6.335820 -15.730616 13.709661 0.049446 -0.068074 0.025718 -6.975699 -17.977703 5.247784 86.808659 82.019666 85.788753 0.391538 -22.075083 -17.700908 0.031917 0.090653 0.015443
-60.188527 57.850391 11.516179 179.213239 -51.043063 -3.438929 2.221218 21.737252 2.050752 1.133249 12.420450 1.127478 1.465829 15.493949 1.440865 1.133519 12.418871 1.122710 2.412583 18.742670 3.655288 3.260276 -1.012582 5.932597 9.911714 0.328104 -1.024094 2.546374 -39.786448 -32.593008 -57.193330 -38.852449 92.281145 -3.676763 8.712366 -36.621137 -7.681433 -3.385224 -2.379742 -0.947446 -18.148703 7.317420 19.970523 -26.489126 -60.835030 6.253222 -0.284435 23.102711 6.749786 -20.065758 -2.170331 -35.556575 74.183526 -40.290433 6.330321 -15.743171 13.700760 0.050271 -0.079501 0.027057 -6.971979 -17.954316 5.244477 86.775528 82.012135 85.740718 0.381327 -22.077671 -17.686900 0.026033 0.096554 0.013004
-60.186115 57.849858 11.516552 179.215372 -51.057371 -3.439813 2.227657 21.704847 2.047010 1.129660 12.439475 1.125526 1.465891 15.507687 1.443226 1.133559 12.418006 1.120245 2.389289 18.713799 3.633801 3.228771 -1.042498 5.920658 9.928554 0.257044 -1.077199 2.531030 -39.716557 -32.561185 -57.165516 -38.893532 92.343859 -3.672666 8.740829 -36.600718 -7.681879 -3.410637 -2.382050 -0.934810 -18.147567 7.313543 19.942083 -26.461749 -60.800026 6.247872 -0.282098 23.096612 6.744603 -20.052841 -2.168813 -35.554391 74.191970 -40.287907 6.324381 -15.764244 13.700318 0.044390 -0.078935 0.023169 -6.971444 -17.939080 5.250479 86.765175 82.016453 85.726431 0.377799 -22.082778 -17.685805 0.027890 0.100733 0.015075
-60.183874 57.849298 11.517074 179.217684 -51.069240 -3.439798 2.228317 21.696951 2.045418 1.132026 12.436671 1.118232 1.464439 15.517552 1.445039 1.133314 12.417017 1.117527 2.367691 18.685170 3.614019 3.224446 -1.037056 5.927068 9.947268 0.209436 -1.110714 2.622239 -39.688214 -32.650362 -57.166384 -38.875897 92.375352 -3.665122 8.766798 -36.579079 -7.681297 -3.456343 -2.388804 -0.925435 -18.125439 7.316127 19.915165 -26.432240 -60.772520 6.228612 -0.287122 23.097618 6.739194 -20.042109 -2.167665 -35.551092 74.199907 -40.285842 6.314443 -15.784951 13.701620 0.041626 -0.068406 0.019305 -6.972228 -17.926913 5.253856 86.763474 82.017532 85.722317 0.372845 -22.087458 -17.686853 0.030151 0.103963 0.016837
-60.183050 57.849511 11.517012 179.212039 -51.085384 -3.425825 2.230634 21.694753 2.034891 1.132002 12.433273 1.114065 1.463911 15.491567 1.425785 1.136631 12.438615 1.126155 2.349711 18.668723 3.602288 3.182996 -1.084005 5.899903 9.961033 0.186326 -1.122950 2.725219 -39.676789 -32.754790 -57.162405 -38.857401 92.410519 -3.659177 8.794527 -36.558270 -7.680129 -3.448300 -2.377775 -0.914650 -18.142666 7.306001 19.895945 -26.405361 -60.743400 6.208578 -0.284990 23.088483 6.735390 -20.026598 -2.172531 -35.542946 74.203929 -40.286000 6.302316 -15.799702 13.704025 0.041239 -0.060396 0.016985 -6.965451 -17.910603 5.246434 86.749210 82.015627 85.703521 0.367703 -22.088460 -17.684429 0.032435 0.102997 0.016362
-60.182991 57.850323 11.516645 179.207818 -51.103438 -3.409768 2.231366 21.700296 2.019748 1.131393 12.425041 1.112621 1.464109 15.500652 1.423975 1.134241 12.424391 1.117450 2.333075 18.652855 3.586609 3.154661 -1.112392 5.883852 9.979556 0.166228 -1.137582 2.796972 -39.661904 -32.828030 -57.152056 -38.858076 92.458990 -3.653582 8.825443 -36.536344 -7.676227 -3.460765 -2.374008 -0.906521 -18.138436 7.299090 19.879689 -26.384673 -60.712133 6.200884 -0.276198 23.079208 6.728249 -20.010096 -2.183294 -35.528236 74.214468 -40.282638 6.305227 -15.819395 13.702169 0.027279 -0.061015 0.014426 -6.958004 -17.892141 5.234168 86.728287 82.013081 85.679656 0.361046 -22.088126 -17.682527 0.036722 0.100485 0.016462
-60.181518 57.850731 11.516967 179.213255 -51.115236 -3.411524 2.228667 21.708231 2.016419 1.135597 12.395463 1.097157 1.464589 15.521996 1.434648 1.133882 12.409503 1.103347 2.317407 18.638056 3.579397 3.128113 -1.139557 5.869425 10.000791 0.145609 -1.146766 2.867001 -39.645621 -32.899868 -57.147676 -38.858229 92.509717 -3.647182 8.856018 -36.510740 -7.673285 -3.477121 -2.366767 -0.901694 -18.128230 7.294745 19.862008 -26.363279 -60.681888 6.200069 -0.267597 23.073450 6.718049 -19.997817 -2.184968 -35.518786 74.218636 -40.277129 6.316329 -15.833100 13.699343 0.034445 -0.065843 0.013215 -6.959859 -17.879702 5.231724 86.717734 82.013128 85.667942 0.365112 -22.092687 -17.678421 0.038032 0.103446 0.011711
-60.180877 57.851019 11.517545 179.214507 -51.124354 -3.407029 2.228876 21.702444 2.007909 1.137259 12.386880 1.090046 1.464191 15.521116 1.434859 1.133987 12.405321 1.100120 2.299861 18.627052 3.564176 3.091113 -1.182476 5.846169 10.022943 0.128624 -1.165122 2.905552 -39.622989 -32.938703 -57.137708 -38.878520 92.578477 -3.644306 8.883730 -36.488698 -7.673240 -3.489063 -2.367326 -0.889774 -18.122217 7.288451 19.834201 -26.342226 -60.644825 6.191065 -0.272290 23.067231 6.710198 -19.987759 -2.190529 -35.498378 74.221682 -40.264595 6.337520 -15.849140 13.698533 0.031750 -0.075961 0.010797 -6.958253 -17.870871 5.227440 86.702728 82.013546 85.648410 0.363698 -22.094009 -17.669920 0.038425 0.103871 0.007763
-60.179555 57.850912 11.518696 179.207655 -51.128859 -3.402385 2.242392 21.673799 2.002757 1.132206 12.409703 1.095064 1.463914 15.509988 1.422833 1.134260 12.403012 1.094709 2.291871 18.620208 3.563569 3.083668 -1.185318 5.848015 10.044415 0.107538 -1.178086 2.883649 -39.591175 -32.915242 -57.111269 -38.938393 92.676440 -3.647052 8.908374 -36.476803 -7.669386 -3.501431 -2.364105 -0.880472 -18.119234 7.282044 19.801721 -26.321199 -60.606052 6.178036 -0.281574 23.063493 6.711123 -19.984471 -2.188743 -35.487432 74.220105 -40.251449 6.330140 -15.850583 13.695398 0.038965 -0.080379 0.011319 -6.954706 -17.862214 5.231841 86.648665 82.015740 85.590838 0.360493 -22.099736 -17.664152 0.039468 0.107233 0.007902
-60.178811 57.851779 11.519089 179.212039 -51.139939 -3.404978 2.242755 21.676370 2.000805 1.132564 12.408079 1.092546 1.468281 15.474507 1.391223 1.135120 12.408465 1.098349 2.299705 18.648049 3.595468 3.066323 -1.206061 5.834994 10.054808 0.120504 -1.154533 3.091207 -39.612409 -33.112225 -57.149619 -38.882379 92.698424 -3.650359 8.929531 -36.467682 -7.667033 -3.495652 -2.357951 -0.882646 -18.098007 7.295058 19.787449 -26.309821 -60.590851 6.171624 -0.291537 23.059917 6.706777 -19.973601 -2.189445 -35.496587 74.220256 -40.256741 6.341268 -15.859284 13.684749 0.034742 -0.078804 0.015273 -6.956513 -17.850064 5.230262 86.629020 82.018381 85.570143 0.359975 -22.101492 -17.658015 0.043321 0.108685 0.003905
-60.178715 57.854236 11.518212 179.220856 -51.162587 -3.409067 2.240105 21.690793 1.997207 1.135583 12.397281 1.084975 1.470659 15.473994 1.383823 1.135338 12.415739 1.107412 2.280487 18.623992 3.573675 3.006717 -1.272886 5.793366 10.065268 0.110353 -1.159410 3.228662 -39.628237 -33.241805 -57.159296 -38.862897 92.742052 -3.649138 8.949775 -36.454233 -7.655404 -3.553455 -2.385348 -0.897523 -18.042755 7.319515 19.772547 -26.298702 -60.573809 6.168747 -0.298463 23.054649 6.694931 -19.948821 -2.189736 -35.494720 74.222203 -40.254391 6.340554 -15.865125 13.677461 0.036752 -0.079337 0.016389 -6.958863 -17.826522 5.224607 86.623674 82.022076 85.564866 0.356519 -22.100500 -17.652808 0.046774 0.102765 0.003958
